<svg xmlns="http://www.w3.org/2000/svg" width="177.555" height="215.482" viewBox="0 0 177.555 215.482">
  <g id="Groupe_273" data-name="Groupe 273" transform="translate(-906.632 -560)">
    <path id="Tracé_114" data-name="Tracé 114" d="M25.2,26.13a89.238,89.238,0,0,1,126.2,126.2l-63.1,63.1-63.1-63.1C-8.366,117.425-8.366,61.037,25.2,26.13Z" transform="translate(906.607 560.05)" fill="#397db4" fill-rule="evenodd"/>
    <ellipse id="Ellipse_182" data-name="Ellipse 182" cx="71.424" cy="70.175" rx="71.424" ry="70.175" transform="translate(922.611 579.991)" fill="#fff"/>
    <path id="Tracé_850" data-name="Tracé 850" d="M59.055-45.466a19.923,19.923,0,0,1,12.319,7.493A21.884,21.884,0,0,1,76.2-24a22.513,22.513,0,0,1-3.493,12.51,23.258,23.258,0,0,1-10.1,8.446A36.991,36.991,0,0,1,46.99,0H8.763V-88.646H45.339A37.932,37.932,0,0,1,60.9-85.725,22.152,22.152,0,0,1,70.8-77.6a21.282,21.282,0,0,1,3.366,11.811,20.2,20.2,0,0,1-4.128,12.954A22.082,22.082,0,0,1,59.055-45.466Zm-32.512-6.6H42.8q6.35,0,9.779-2.858t3.429-8.191q0-5.334-3.429-8.255T42.8-74.3H26.543ZM44.45-14.478q6.477,0,10.1-3.048t3.62-8.636a11.122,11.122,0,0,0-3.81-8.953q-3.81-3.239-10.287-3.239H26.543v23.876Z" transform="translate(954.41 694.357)"/>
  </g>
</svg>
