<svg xmlns="http://www.w3.org/2000/svg" width="195.756" height="237.572" viewBox="0 0 195.756 237.572">
  <g id="Marqueur" transform="translate(-906.632 -560)">
    <path id="Tracé_114" data-name="Tracé 114" d="M27.779,28.814A98.386,98.386,0,1,1,166.917,167.953L97.348,237.522,27.779,167.953C-9.226,129.467-9.226,67.3,27.779,28.814Z" transform="translate(906.607 560.05)" fill="#800020" fill-rule="evenodd"/>
    <ellipse id="Ellipse_182" data-name="Ellipse 182" cx="78.746" cy="77.369" rx="78.746" ry="77.369" transform="translate(924.25 582.04)" fill="#fff"/>
    <g id="SVG_Sabot" data-name="SVG Sabot" transform="translate(958.011 627.475)">
      <path id="Tracé_346" data-name="Tracé 346" d="M74.62,16.3a55.274,55.274,0,0,0,16.942,1.68A6.669,6.669,0,0,1,98.351,23c2.6,10.425-6.16,30.612-18.374,30.612H65.97a17.694,17.694,0,0,1-10.623-3.524c-3.624-2.715-8.51-5.952-11.437-5.965-3.948-.016-7.959,2.213-9.2,6.112a4.781,4.781,0,0,1-4.537,3.377H15.98a10.629,10.629,0,0,1-9-4.956A47.362,47.362,0,0,1,.514,16.825a2.413,2.413,0,0,1,2.877-1.995A46.688,46.688,0,0,0,47.27,1.317,4.081,4.081,0,0,1,49.549.06a3.969,3.969,0,0,1,4.015,1.767,28.9,28.9,0,0,0,2.979,3.837l3.872,11.612Zm0,0" transform="translate(0 0)" fill="#607d8b"/>
      <path id="Tracé_347" data-name="Tracé 347" d="M14.935,110.453A47.361,47.361,0,0,1,8.467,78.62a2.378,2.378,0,0,1,.5-1.142,51.521,51.521,0,0,1-5.578-.853A2.413,2.413,0,0,0,.514,78.62a47.365,47.365,0,0,0,6.467,31.832,10.631,10.631,0,0,0,9,4.956h7.952a10.629,10.629,0,0,1-9-4.956Zm0,0" transform="translate(0 -61.795)" fill="#455a64"/>
      <path id="Tracé_349" data-name="Tracé 349" d="M287.4,54.714l-9.845,10.709-6.277-5.772,8.612-9.369A37.247,37.247,0,0,0,287.4,54.714Zm0,0" transform="translate(-218.927 -40.576)" fill="#ffd54f"/>
    </g>
  </g>
</svg>
