<svg height="485pt" viewBox="0 -2 485.656 485" width="485pt" xmlns="http://www.w3.org/2000/svg" id="fi_1368308"><path d="m424 64.328125h16v328h-16zm0 0" fill="#612b12"></path><g fill="#07b671"><path d="m466.34375 101.984375-34.34375-34.34375-34.34375 34.34375-11.3125-11.3125 40-40c3.125-3.121094 8.1875-3.121094 11.3125 0l40 40zm0 0"></path><path d="m474.34375 157.984375-42.34375-42.34375-42.34375 42.34375-11.3125-11.3125 48-48c3.125-3.121094 8.1875-3.121094 11.3125 0l48 48zm0 0"></path><path d="m466.34375 197.984375-34.34375-34.34375-34.34375 34.34375-11.3125-11.3125 40-40c3.125-3.121094 8.1875-3.121094 11.3125 0l40 40zm0 0"></path><path d="m474.34375 253.984375-42.34375-42.34375-42.34375 42.34375-11.3125-11.3125 48-48c3.125-3.121094 8.1875-3.121094 11.3125 0l48 48zm0 0"></path><path d="m466.34375 293.984375-34.34375-34.34375-34.34375 34.34375-11.3125-11.3125 40-40c3.125-3.121094 8.1875-3.121094 11.3125 0l40 40zm0 0"></path></g><path d="m48 96.328125h16v224h-16zm0 0" fill="#612b12"></path><path d="m90.34375 141.984375-34.34375-34.34375-34.34375 34.34375-11.3125-11.3125 40-40c3.125-3.121094 8.1875-3.121094 11.3125 0l40 40zm0 0" fill="#07b671"></path><path d="m98.34375 197.984375-42.34375-42.34375-42.34375 42.34375-11.3125-11.3125 48-48c3.125-3.121094 8.1875-3.121094 11.3125 0l48 48zm0 0" fill="#07b671"></path><path d="m90.34375 237.984375-34.34375-34.34375-34.34375 34.34375-11.3125-11.3125 40-40c3.125-3.121094 8.1875-3.121094 11.3125 0l40 40zm0 0" fill="#07b671"></path><path d="m368 8.328125h16v128h-16zm0 0" fill="#612b12"></path><path d="m410.34375 53.984375-34.34375-34.34375-34.34375 34.34375-11.3125-11.3125 40-40c3.125-3.121094 8.1875-3.121094 11.3125 0l40 40zm0 0" fill="#07b671"></path><path d="m120 16.328125h16v160h-16zm0 0" fill="#612b12"></path><path d="m170.34375 61.984375-42.34375-42.34375-42.34375 42.34375-11.3125-11.3125 48-48c3.125-3.121094 8.1875-3.121094 11.3125 0l48 48zm0 0" fill="#07b671"></path><path d="m162.34375 101.984375-34.34375-34.34375-34.34375 34.34375-11.3125-11.3125 40-40c3.125-3.121094 8.1875-3.121094 11.3125 0l40 40zm0 0" fill="#07b671"></path><path d="m264 .328125-62.230469 62.230469c-9.820312 9.8125-9.820312 25.726562 0 35.539062l4.460938 4.460938c9.820312 9.8125 9.820312 25.726562 0 35.539062l-64.460938 64.460938c-9.820312 9.8125-9.820312 25.726562 0 35.539062 4.792969 4.789063 7.449219 11.316406 7.363281 18.097656-.089843 6.777344-2.910156 13.234376-7.828124 17.902344l-141.304688 134.230469v72h472l-120.089844-127.152344c-8.988281-9.515625-9.167968-24.339843-.414062-34.070312l4.160156-4.617188c9.101562-10.109375 8.503906-25.625-1.34375-35.007812l-47.664062-45.390625c-4.914063-4.671875-7.734376-11.128906-7.816407-17.910156-.082031-6.777344 2.578125-13.300782 7.375-18.089844l28.519531-28.523438c9.621094-9.613281 9.84375-25.136718.503907-35.023437l-38.65625-40.925781c-7.484375-7.925782-9.011719-19.773438-3.773438-29.335938l35.199219-63.953125zm0 0" fill="#168de2"></path><path d="m209.65625 281.984375-11.3125-11.3125 26-26c4.609375-4.605469 4.609375-12.074219 0-16.679687-10.859375-10.859376-10.859375-28.46875 0-39.328126l26-25.992187c5.707031-5.714844 5.707031-14.972656 0-20.6875l11.3125-11.3125c11.945312 11.96875 11.945312 31.34375 0 43.3125l-26 26c-4.609375 4.605469-4.609375 12.074219 0 16.679687 10.859375 10.859376 10.859375 28.46875 0 39.328126zm0 0" fill="#0c77c4"></path><path d="m314.34375 437.984375-52-52c-14.152344-14.175781-14.152344-37.136719 0-51.3125 7.902344-7.929687 7.902344-20.757813 0-28.6875l-12-12 11.3125-11.3125 12 12c14.152344 14.175781 14.152344 37.136719 0 51.3125-7.902344 7.929687-7.902344 20.757813 0 28.6875l52 52zm0 0" fill="#0c77c4"></path><path d="m141.65625 477.984375-11.3125-11.3125 32-32c5.703125-5.71875 5.703125-14.96875 0-20.6875-11.945312-11.96875-11.945312-31.34375 0-43.3125l32-32 11.3125 11.3125-32 32c-5.703125 5.71875-5.703125 14.96875 0 20.6875 11.945312 11.96875 11.945312 31.34375 0 43.3125zm0 0" fill="#0c77c4"></path><path d="m341.65625 93.984375-11.3125-11.3125 40-40c3.125-3.121094 8.1875-3.121094 11.3125 0l32 32-11.3125 11.3125-26.34375-26.34375zm0 0" fill="#07b671"></path></svg>