<svg id="fi_6840334" enable-background="new 0 0 512 512" height="512" viewBox="0 0 512 512" width="512" xmlns="http://www.w3.org/2000/svg"><g><path d="m284.593 30h30v30h-30z" fill="#ff8848"></path><path d="m164.593 0h30v30h-30z" fill="#ff8848"></path><path d="m104.593 30h30v30h-30z" fill="#ffb64c"></path><path d="m462.875 385.877-37.368-11.692-32.466-83.354-163.448-34.831 10 256h137.059l15.025-10 15 10h105.323z" fill="#833030"></path><path d="m118.889 313.618-53.025 29.285-65.864 169.097h98.67l15-10 15 10h110.923v-256z" fill="#9c564b"></path><path d="m254.593 60h-15l-10 15 10 15h15z" fill="#ff8848"></path><path d="m224.593 60h15v30h-15z" fill="#ffb64c"></path><path d="m358.353 402.009c-14.824-14.825-22.988-34.535-22.988-55.5 0-17.349 4.925-30.275 15.055-39.52 12.157-11.093 29.594-14.931 42.622-16.158l-24.006-61.632-46.283-11.976-37.87-97.223h-45.29l-10 73.413 10 77.717c2.286-.213 4.606-.295 6.953-.229 20.346.58 38.121 11.695 47.551 29.733 7.371 14.101 11.268 29.965 11.268 45.875 0 28.979 11.284 56.222 31.775 76.713 23.927 23.929 37.803 55.229 39.512 88.778h30.025c-1.731-41.565-18.729-80.395-48.324-109.991z" fill="#f66"></path><path d="m194.303 120-75.415 193.618c3.302.811 6.804 1.889 10.26 3.326 20.371 8.473 22.728 22.322 22.728 32.001 0 20.255-7.888 39.298-22.21 53.62-19.988 19.988-30.997 46.564-30.997 74.833v34.602h30v-34.602c0-20.255 7.888-39.298 22.21-53.62 19.989-19.989 30.997-46.565 30.997-74.833 0-16.438 4.458-32.586 12.891-46.699l2.611-4.37c9.235-15.454 24.695-25.115 42.214-26.747v-151.129z" fill="#ff8848"></path></g></svg>