<svg id="fi_4881524" enable-background="new 0 0 512 512" height="512" viewBox="0 0 512 512" width="512" xmlns="http://www.w3.org/2000/svg"><g><g><g><path d="m190.01 96.664 131.98 31.867c12.713 3.069 25.973 3.069 38.686 0l100.445-24.252c25.926-6.26 50.879 13.385 50.879 40.056v296.384c0 19.033-13.035 35.589-31.536 40.056l-119.788 28.923c-12.713 3.069-25.973 3.069-38.686 0l-131.98-31.867c-12.713-3.069-25.973-3.069-38.686 0l-100.445 24.253c-25.926 6.259-50.879-13.385-50.879-40.057v-296.384c0-19.033 13.035-35.589 31.536-40.056l119.788-28.923c12.712-3.069 25.973-3.069 38.686 0z" fill="#efedff"></path></g></g><g><g><path d="m170.667 94.362c6.493 0 12.987.767 19.343 2.302l131.98 31.867c6.356 1.535 12.85 2.302 19.343 2.302v381.167c-6.493 0-12.987-.767-19.343-2.302l-131.98-31.867c-6.356-1.535-12.85-2.302-19.343-2.302z" fill="#d4d4ff"></path></g></g><g><g><path d="m170.667 135.57c-3.255 0-6.508.387-9.671 1.151l-119.788 28.922v15.809l198.989 266.105 91.464 22.084c3.164.764 6.417 1.151 9.672 1.151s6.508-.387 9.671-1.151l119.788-28.923v-52.341z" fill="#7ce3ff"></path></g></g><g><g><path d="m170.667 434.322c9.762 0 19.524 1.161 29.014 3.453l40.516 9.782 13.266-13.278c23.063-23.083 27.002-59.085 9.477-86.609-7.55-11.857-18.511-21.152-31.443-26.661l-74.112-31.574c-14.602-6.221-26.641-17.244-34.121-31.243l-19.807-37.069c-8.979-16.805-24.453-29.196-42.815-34.285l-19.434-5.386-.001 280.574 100.446-24.252c9.489-2.29 19.251-3.452 29.014-3.452z" fill="#70dcba"></path></g></g><g><g><path d="m245.509 225.514 46.719 24.963c24.678 13.186 42.835 35.955 50.198 62.948 12.072 44.253 52.267 74.953 98.138 74.953h30.229l.001-244.043-100.446 24.252c-9.489 2.291-19.251 3.453-29.014 3.453-9.762 0-19.524-1.161-29.014-3.453l-131.98-31.866c-3.164-.764-6.418-1.151-9.672-1.151l38.4 57.036c9.277 13.78 21.789 25.079 36.441 32.908z" fill="#70dcba"></path></g></g><g><g><path d="m170.667 135.57-.001 219.006 69.531 92.982 91.464 22.084c3.164.764 6.417 1.151 9.672 1.151v-191.464z" fill="#55dafe"></path></g></g><g><g><path d="m262.94 347.671c-7.55-11.857-18.511-21.152-31.443-26.661l-60.831-25.916v139.229h.001c9.762 0 19.524 1.161 29.014 3.453l40.516 9.782 13.266-13.278c23.063-23.083 27.002-59.085 9.477-86.609z" fill="#30cd9c"></path></g></g><g><g><path d="m245.509 225.514 46.719 24.963c23.542 12.579 41.142 33.883 49.106 59.253v-137.69c-9.762 0-19.524-1.161-29.014-3.453l-131.98-31.866c-3.164-.764-6.418-1.151-9.672-1.151l38.4 57.036c9.277 13.78 21.789 25.079 36.441 32.908z" fill="#30cd9c"></path></g></g><g><g><g><path d="m403.761 25.859c-34.478-34.478-90.378-34.478-124.856 0-34.478 34.478-34.478 90.377 0 124.855l50.298 50.298c6.699 6.699 17.561 6.699 24.26 0l50.298-50.298c34.478-34.478 34.478-90.378 0-124.855zm-40.574 84.281c-12.069 12.069-31.637 12.069-43.707 0-12.069-12.069-12.069-31.637 0-43.707 12.069-12.069 31.637-12.069 43.707 0 12.069 12.069 12.069 31.637 0 43.707z" fill="#ff8f71"></path></g></g></g><g><g><path d="m329.203 201.012c6.699 6.699 17.561 6.699 24.26 0l37.371-37.371c-22.433 5.376-49.501-8.094-49.501-44.449-7.909 0-15.819-3.017-21.853-9.052-12.069-12.069-12.069-31.637 0-43.707 6.035-6.035 13.944-9.052 21.853-9.052-16.012 0-28.992-12.98-28.992-28.992 0-13.498 9.225-24.841 21.714-28.07-20.111 1.654-39.764 10.153-55.15 25.539-34.478 34.478-34.478 90.377 0 124.855z" fill="#ff6f4d"></path></g></g></g></svg>