<svg version="1.1" id="fi_856330" xmlns="http://www.w3.org/2000/svg" xmlns:xlink="http://www.w3.org/1999/xlink" x="0px" y="0px" viewBox="0 0 464 464" style="enable-background:new 0 0 464 464;" xml:space="preserve">
    <path style="fill:#F2F2F2;" d="M416,240h48V0H96v104L416,240z"></path>
    <path style="fill:#3FA9F5;" d="M128,104V32h304v176h-24l-280-96V104z"></path>
    <path style="fill:#E6E6E6;" d="M368,96v24L112,336H64H0V96H368z"></path>
    <path style="fill:#29ABE2;" d="M312,128H32v176h72L312,128z"></path>
    <path style="fill:#F2F2F2;" d="M464,328L120,464L32,232l344-128L464,328z"></path>
    <circle style="fill:#F8CF26;" cx="88" cy="184" r="24"></circle>
    <path style="fill:#29ABE2;" d="M72,256l64,168l288-112l-64-168L72,256z"></path>
    <path style="fill:#8C6239;" d="M152.168,417.496L160,288l109.168,84.336L152.168,417.496z"></path>
    <path style="fill:#754C24;" d="M424,312l-10-25.832L312,232v32l-72-48l-16.336,121.336l45.504,35L424,312z"></path>
    <g>
    </g>
    <g>
    </g>
    <g>
    </g>
    <g>
    </g>
    <g>
    </g>
    <g>
    </g>
    <g>
    </g>
    <g>
    </g>
    <g>
    </g>
    <g>
    </g>
    <g>
    </g>
    <g>
    </g>
    <g>
    </g>
    <g>
    </g>
    <g>
    </g>
</svg>