<svg xmlns="http://www.w3.org/2000/svg" xmlns:xlink="http://www.w3.org/1999/xlink" width="431" height="165.759" viewBox="0 0 431 165.759">
  <defs>
    <radialGradient id="radial-gradient" cx="0.5" cy="0.5" r="0.5" gradientUnits="objectBoundingBox">
      <stop offset="0" stop-color="#dcdcdc"/>
      <stop offset="1" stop-color="#fff"/>
    </radialGradient>
    <radialGradient id="radial-gradient-2" cx="0.5" cy="0.5" r="0.5" gradientUnits="objectBoundingBox">
      <stop offset="0" stop-color="#dcdcdc" stop-opacity="0"/>
      <stop offset="1" stop-color="#fff" stop-opacity="0"/>
    </radialGradient>
  </defs>
  <g id="Logo_Bourgad" data-name="Logo Bourgad" transform="translate(0 1.115)">
    <g id="Groupe_119" data-name="Groupe 119" transform="translate(-5067 1034.644)">
      <g id="Rectangle_29" data-name="Rectangle 29" transform="translate(5244.555 -1034.644)">
        <path id="Tracé_418" data-name="Tracé 418" d="M4.941,0H66.949A5.111,5.111,0,0,1,71.89,5.265V37.644H0V5.265A5.111,5.111,0,0,1,4.941,0Z" fill="#5d8a9f"/>
        <path id="Tracé_419" data-name="Tracé 419" d="M6.07,1.5H68.079a4.729,4.729,0,0,1,4.57,4.873v32H1.5v-32A4.729,4.729,0,0,1,6.07,1.5Z" transform="translate(-1.129 -1.115)" fill="none" stroke="#000" stroke-width="3"/>
      </g>
      <g id="Groupe_118" data-name="Groupe 118" transform="translate(5263.643 -1030.546)">
        <path id="Tracé_248" data-name="Tracé 248" d="M6.91,40.05H39.816a.36.36,0,0,0,.361-.359V30.3a.365.365,0,0,0-.032-.147c-.009-.03-2.319-4.068-2.334-4.1V22.135a.359.359,0,0,0-.029-.142l-.894-2.118a.361.361,0,0,0-.333-.22h-1.1a7.993,7.993,0,0,0-.029-1.062L34.38,16.108a.361.361,0,0,0-.333-.22H31.781a.36.36,0,0,0,0,.719h2.026l.747,1.769H30.626V12.809a.4.4,0,0,0-.021-.114c-.025-.088-2.026-4.047-2.057-4.122V6.862a.361.361,0,0,0-.722,0V8.573l-2.04,4.076a.641.641,0,0,0-.027.077.627.627,0,0,0-.01.082v4.528c-.192,0-.43-.022-.536.176l-.783,1.319a.388.388,0,0,1-.333.189.36.36,0,0,0-.361.359c.09.708,1.118.238,1.315-.183l.679-1.143H29.9v7.387a.361.361,0,0,0,.722,0V19.094h4.11v5.557a.361.361,0,0,0,.722,0V22.493h1.631v3.293H31.681a.389.389,0,0,0-.145.031.419.419,0,0,0-.141.11L28.85,29.235V25.019a.351.351,0,0,0-.036-.153c.006-.008-2.2-4.348-2.2-4.356a.362.362,0,0,0-.645,0l-2.2,4.348a.38.38,0,0,0-.039.161v2.393a3.386,3.386,0,0,0-1.151.323V26.39a1.482,1.482,0,0,0-2.965,0v3.455a2.59,2.59,0,0,0-.187.211,1.446,1.446,0,0,0-1.279-1.044V26.39a1.482,1.482,0,0,0-2.965,0v4.56c-.472.553-.642,1.027-1.255,1.317a2.685,2.685,0,0,0-1.613,1.459,3.386,3.386,0,0,0-1.787.1A2.477,2.477,0,0,0,8.77,33.4l.249-1.974a1.647,1.647,0,0,1,.593-1.072L10.9,29.3a2.536,2.536,0,0,0,.912-1.722,2.094,2.094,0,0,1,1.038-1.745v5.482a.361.361,0,0,0,.722,0V20.288h1.539v2.7a.36.36,0,0,0,.361.359h8.256a.36.36,0,0,0,0-.719H23V15.111a.36.36,0,0,0-.361-.359H17.165a.361.361,0,0,0-.3.163l-1.7,2.585c-.01.021-.022.04-.032.061a.429.429,0,0,0-.027.136v1.874h-1.9a.36.36,0,0,0-.361.359V24.89c-.953.8-1.693,1.263-1.757,2.621a1.816,1.816,0,0,1-.654,1.232L9.152,29.8a2.362,2.362,0,0,0-.85,1.537L8.015,33.6a.355.355,0,0,0,0,.064,2.105,2.105,0,0,0-1.07,1.35,2.191,2.191,0,0,0,.27,1.726,3.333,3.333,0,0,0-.659,3.015.36.36,0,0,0,.355.291ZM28.188,9.463l1.495,2.987H26.693Zm-1.717,7.874V13.168H29.9v4.169Zm-10.641,5.3V18.055h6.448v4.578Zm1.53-7.163h4.917v1.867H16.136Zm1.5,22.494h2.619a.36.36,0,0,0,.361-.359V36.266h1.9V37.6a.36.36,0,0,0,.361.359h1.883v1.367H18.486A3.854,3.854,0,0,1,16.6,38.158V36.267h1.9v1.338a.36.36,0,0,0,.361.359ZM28.49,35.8H30.6a.36.36,0,0,0,.361-.359V34.325h1.41v5.006H30.948v-.984a1.409,1.409,0,0,0-2.819,0v.984H26.7V34.325h1.428v1.118a.361.361,0,0,0,.361.36Zm1.736,3.529H28.851v-.984a.688.688,0,0,1,1.375,0Zm9.229,0H33.1V36.267h1.119v1.338a.36.36,0,0,0,.361.359h2.619a.36.36,0,0,0,.361-.359V36.267h1.9Zm-4-18.957h.858l.591,1.4H35.458Zm-3.822,6.42,1.792,3.142H29.22Zm-5.343-5.323L27.9,24.66H24.682Zm-5.952,4.92a.761.761,0,0,1,1.522,0v1.833a3.211,3.211,0,0,0-.657.821,3.43,3.43,0,0,0-.865.285ZM21.5,29.722a.364.364,0,0,0,.28-.218,2.467,2.467,0,0,1,1.954-1.368v6.142a.361.361,0,0,0,.722,0v-8.9H28.13v7.212a.361.361,0,0,0,.722,0V30.654h4.836v3.762a.361.361,0,0,0,.722,0V30.3a.433.433,0,0,0-.009-.079.375.375,0,0,0-.038-.1L32.3,26.5H37.24L39.2,29.936H35.469a.36.36,0,0,0,0,.719h3.986v4.894H37.2a.36.36,0,0,0-.361.359v1.338h-1.9V35.908a.36.36,0,0,0-.361-.359H33.1V33.965a.36.36,0,0,0-.361-.359H30.6a.36.36,0,0,0-.361.359v1.118H28.851V33.965a.36.36,0,0,0-.361-.359H26.341a.36.36,0,0,0-.361.359v3.28H24.457V35.907a.36.36,0,0,0-.361-.359h-1.9l-.332-1.692a2.132,2.132,0,0,0-.954-1.388c-.833-.479-.867-.67-1.166-1.543a2.111,2.111,0,0,1,1.759-1.2ZM15.911,26.39a.761.761,0,0,1,1.522,0v2.628c-.67.049-1.107.609-1.522,1.071ZM13.855,33.1a2.949,2.949,0,0,0,1.334-.961A20.2,20.2,0,0,1,17,29.98a.858.858,0,0,1,.605-.253c.464-.009.914-.047,1.115.471l.552,1.553a2.136,2.136,0,0,0,.871,1.086l.381.24a1.411,1.411,0,0,1,.631.919l.305,1.556a.359.359,0,0,0-.343.357v1.338h-1.9V35.908a.36.36,0,0,0-.361-.359h-2.62a.36.36,0,0,0-.361.359v1.037c-.667-1.566-1.644-1.822-2.186-1.828a2,2,0,0,0-.718-1.081,1.734,1.734,0,0,1,.883-.938Zm-5.968,4a.354.354,0,0,0,.146-.234.363.363,0,0,0-.063-.27,1.542,1.542,0,0,1,2.256-2.1.363.363,0,0,0,.346.07c1.367-.467,2.334-.107,2.466.96a.359.359,0,0,0,.463.322c.043-.012,1.051-.27,1.75,1.47a4.482,4.482,0,0,0,1.581,2.014H7.217A2.335,2.335,0,0,1,7.887,37.1Z" transform="translate(-6.463 -6.504)"/>
        <path id="Tracé_249" data-name="Tracé 249" d="M188.517,211.836h2.742a.64.64,0,0,0,.642-.637v-2.294a2.014,2.014,0,0,0-4.027,0V211.2a.64.64,0,0,0,.642.637Zm.642-2.931a.729.729,0,0,1,1.458,0v1.656H189.16Z" transform="translate(-170.225 -187.796)"/>
        <path id="Tracé_250" data-name="Tracé 250" d="M291.842,257.082h2.673a.64.64,0,0,0,.642-.637v-3.99a.64.64,0,0,0-.642-.637h-2.673a.64.64,0,0,0-.642.637v3.991A.64.64,0,0,0,291.842,257.082Zm.642-3.991h1.388v2.717h-1.388Z" transform="translate(-265.259 -228.543)"/>
        <path id="Tracé_251" data-name="Tracé 251" d="M107.494,128.518h-2.435a.64.64,0,0,0-.642.637v3.277a.64.64,0,0,0,.642.637h2.435a.64.64,0,0,0,.642-.637v-3.277A.64.64,0,0,0,107.494,128.518Zm-.642,3.277H105.7v-2h1.15Z" transform="translate(-94.84 -116.803)"/>
        <path id="Tracé_252" data-name="Tracé 252" d="M135.613,128.518h-2.436a.64.64,0,0,0-.642.637v3.277a.64.64,0,0,0,.642.637h2.436a.64.64,0,0,0,.642-.637v-3.277A.64.64,0,0,0,135.613,128.518Zm-.642,3.277h-1.15v-2h1.15Z" transform="translate(-120.21 -116.803)"/>
        <path id="Tracé_253" data-name="Tracé 253" d="M210.341,79.139h-2.336a.64.64,0,0,0-.642.637v3.277a.64.64,0,0,0,.642.637h2.336a.64.64,0,0,0,.642-.637V79.776A.64.64,0,0,0,210.341,79.139Zm-.642,3.277h-1.051v-2H209.7Z" transform="translate(-187.693 -72.166)"/>
        <path id="Tracé_254" data-name="Tracé 254" d="M250.8,151.792h2.825a.64.64,0,0,0,.642-.637v-4a.64.64,0,0,0-.642-.637H250.8a.64.64,0,0,0-.642.637v4A.64.64,0,0,0,250.8,151.792Zm.642-4h1.54v2.725h-1.54Z" transform="translate(-226.479 -133.236)"/>
      </g>
      <g id="Rectangle_27" data-name="Rectangle 27" transform="translate(5067 -997)" stroke="#707070" stroke-width="1" fill="url(#radial-gradient)">
        <rect width="431" height="127" rx="28" stroke="none"/>
        <rect x="0.5" y="0.5" width="430" height="126" rx="27.5" fill="none"/>
      </g>
      <g id="Rectangle_28" data-name="Rectangle 28" transform="translate(5075.823 -985.728)" fill="url(#radial-gradient-2)">
        <path d="M 389.7726135253906 102.9474487304688 L 22.88344764709473 102.9474487304688 C 18.11161422729492 102.9474487304688 13.62400245666504 101.0778884887695 10.24733638763428 97.6832275390625 C 6.863558292388916 94.28144836425781 5.000002861022949 89.75661468505859 5.000002861022949 84.94228363037109 L 5.000002861022949 23.00516891479492 C 5.000002861022949 18.19083595275879 6.863558292388916 13.66600227355957 10.24733638763428 10.2642240524292 C 13.62400245666504 6.869557857513428 18.11161422729492 5.000001907348633 22.88344764709473 5.000001907348633 L 389.7726135253906 5.000001907348633 C 394.54443359375 5.000001907348633 399.0320129394531 6.869557857513428 402.4087219238281 10.2642240524292 C 405.7925109863281 13.66600227355957 407.656005859375 18.19078063964844 407.656005859375 23.00516891479492 L 407.656005859375 84.94228363037109 C 407.656005859375 89.75666809082031 405.7925109863281 94.28144836425781 402.4087219238281 97.6832275390625 C 399.0320129394531 101.0778884887695 394.54443359375 102.9474487304688 389.7726135253906 102.9474487304688 Z" stroke="none"/>
        <path d="M 22.88345336914062 9.999977111816406 C 15.77951049804688 9.999977111816406 10 15.83409881591797 10 23.00522613525391 L 10 84.94222259521484 C 10 92.11334991455078 15.77951049804688 97.94747161865234 22.88345336914062 97.94747161865234 L 389.7725524902344 97.94747161865234 C 396.8764953613281 97.94747161865234 402.656005859375 92.11334991455078 402.656005859375 84.94222259521484 L 402.656005859375 23.00522613525391 C 402.656005859375 15.83409881591797 396.8764953613281 9.999977111816406 389.7725524902344 9.999977111816406 L 22.88345336914062 9.999977111816406 M 22.88345336914062 -2.288818359375e-05 L 389.7725524902344 -2.288818359375e-05 C 402.4107666015625 -2.288818359375e-05 412.656005859375 10.29978942871094 412.656005859375 23.00522613525391 L 412.656005859375 84.94222259521484 C 412.656005859375 97.64765930175781 402.4107666015625 107.9474716186523 389.7725524902344 107.9474716186523 L 22.88345336914062 107.9474716186523 C 10.2452392578125 107.9474716186523 0 97.64765930175781 0 84.94222259521484 L 0 23.00522613525391 C 0 10.29978942871094 10.2452392578125 -2.288818359375e-05 22.88345336914062 -2.288818359375e-05 Z" stroke="none" fill="#5d8a9f"/>
      </g>
      <path id="BOURGAD" d="M30.225-23.27a10.2,10.2,0,0,1,6.305,3.835A11.2,11.2,0,0,1,39-12.285a11.523,11.523,0,0,1-1.787,6.4A11.9,11.9,0,0,1,32.045-1.56a18.932,18.932,0,0,1-8,1.56H4.485V-45.37h18.72a19.414,19.414,0,0,1,7.962,1.5,11.338,11.338,0,0,1,5.07,4.16A10.892,10.892,0,0,1,37.96-33.67a10.34,10.34,0,0,1-2.113,6.63A11.3,11.3,0,0,1,30.225-23.27Zm-16.64-3.38h8.32a7.617,7.617,0,0,0,5.005-1.463,5.15,5.15,0,0,0,1.755-4.192A5.247,5.247,0,0,0,26.91-36.53a7.5,7.5,0,0,0-5.005-1.495h-8.32ZM22.75-7.41a7.787,7.787,0,0,0,5.167-1.56,5.459,5.459,0,0,0,1.853-4.42,5.692,5.692,0,0,0-1.95-4.583,7.863,7.863,0,0,0-5.265-1.657h-8.97V-7.41ZM67.34.455a23.507,23.507,0,0,1-11.7-2.99,22.323,22.323,0,0,1-8.45-8.288,23.183,23.183,0,0,1-3.12-11.993,23.059,23.059,0,0,1,3.12-11.927,22.323,22.323,0,0,1,8.45-8.288,23.507,23.507,0,0,1,11.7-2.99,23.454,23.454,0,0,1,11.733,2.99,22.153,22.153,0,0,1,8.385,8.288,23.247,23.247,0,0,1,3.087,11.927,23.373,23.373,0,0,1-3.087,11.993A22.086,22.086,0,0,1,79.04-2.535,23.507,23.507,0,0,1,67.34.455Zm0-8.125a13.862,13.862,0,0,0,7.215-1.852,12.7,12.7,0,0,0,4.875-5.3,17.383,17.383,0,0,0,1.755-7.995,17.182,17.182,0,0,0-1.755-7.962,12.527,12.527,0,0,0-4.875-5.233,14.056,14.056,0,0,0-7.215-1.82,14.232,14.232,0,0,0-7.247,1.82,12.463,12.463,0,0,0-4.908,5.233,17.182,17.182,0,0,0-1.755,7.962,17.383,17.383,0,0,0,1.755,7.995,12.633,12.633,0,0,0,4.908,5.3A14.036,14.036,0,0,0,67.34-7.67Zm38.935-37.7v28.08q0,4.615,2.4,7.052A9.069,9.069,0,0,0,115.44-7.8a9.159,9.159,0,0,0,6.825-2.438q2.4-2.437,2.4-7.052V-45.37h9.165v28.015a18.086,18.086,0,0,1-2.5,9.783,15.872,15.872,0,0,1-6.695,6.013A21.253,21.253,0,0,1,115.31.455a20.685,20.685,0,0,1-9.2-2.015A15.341,15.341,0,0,1,99.58-7.573a18.656,18.656,0,0,1-2.4-9.783V-45.37ZM166.01,0,156-17.68h-4.29V0h-9.1V-45.37h17.03a19.886,19.886,0,0,1,8.97,1.853,12.942,12.942,0,0,1,5.557,5.005,13.659,13.659,0,0,1,1.853,7.052,13.509,13.509,0,0,1-2.6,8.092,13.357,13.357,0,0,1-7.735,4.972L176.54,0Zm-14.3-24.505h7.6q3.705,0,5.525-1.787a6.652,6.652,0,0,0,1.82-4.973,6.347,6.347,0,0,0-1.82-4.842q-1.82-1.723-5.525-1.722h-7.6Zm64.155-7.215a10.653,10.653,0,0,0-4.29-4.355,13.055,13.055,0,0,0-6.37-1.495,13.926,13.926,0,0,0-7.15,1.82,12.57,12.57,0,0,0-4.875,5.2,16.688,16.688,0,0,0-1.755,7.8,16.728,16.728,0,0,0,1.788,7.93,12.654,12.654,0,0,0,4.973,5.2,14.675,14.675,0,0,0,7.41,1.82,12.854,12.854,0,0,0,8.515-2.763,13.185,13.185,0,0,0,4.355-7.7h-15.6V-25.22h24.57v7.93a21.314,21.314,0,0,1-3.9,8.775,22.02,22.02,0,0,1-7.7,6.468A22.647,22.647,0,0,1,205.27.39a23.915,23.915,0,0,1-11.862-2.958,21.519,21.519,0,0,1-8.32-8.223,23.587,23.587,0,0,1-3.023-11.96,23.766,23.766,0,0,1,3.023-11.992A21.454,21.454,0,0,1,193.407-43a23.785,23.785,0,0,1,11.8-2.958,23.608,23.608,0,0,1,13.325,3.737,19.085,19.085,0,0,1,7.8,10.5Zm46.15,23.075h-18.07L240.955,0H231.4l16.315-45.435H258.31L274.625,0H265Zm-2.47-7.28L252.98-34.9l-6.565,18.98Zm37.05-29.445a27.1,27.1,0,0,1,12.578,2.8,19.968,19.968,0,0,1,8.385,7.962,23.719,23.719,0,0,1,2.958,11.993,23.362,23.362,0,0,1-2.958,11.927,20.086,20.086,0,0,1-8.385,7.9A27.1,27.1,0,0,1,296.595,0h-15.86V-45.37ZM296.27-7.735q7.15,0,11.05-3.9t3.9-10.985q0-7.085-3.9-11.083t-11.05-4h-6.435V-7.735Z" transform="translate(5119 -910)"/>
    </g>
  </g>
</svg>
