<svg id="fi_2169297" enable-background="new 0 0 511.828 511.828" height="512" viewBox="0 0 511.828 511.828" width="512" xmlns="http://www.w3.org/2000/svg"><path d="m119.728 346.199h-99.009v-101.732l49.504-50.74 49.505 50.74z" fill="#ffe2c7"></path><path d="m350.392 346.199v-203.834l70.001-60.367 70.001 60.367v203.834z" fill="#ffeede"></path><path d="m420.393 81.998-20 17.247 50.001 43.12v203.834h40v-203.834z" fill="#ffe2c7"></path><path d="m119.546 152.643 74.109-56.707 74.109 56.707v193.556h-148.218z" fill="#f1c395"></path><path d="m267.764 152.643h-148.218l74.109-56.707z" fill="#ff416a"></path><path d="m267.643 80.263h82.74v265.936h-82.74z" fill="#ffe2c7"></path><path d="m437.887 346.199h-170.123v-101.835l42.531-32.291 42.531 32.291h85.061z" fill="#ffeede"></path><path d="m437.887 244.364-44.083-32.291h-83.509l42.531 32.291z" fill="#ff416a"></path><path d="m352.826 244.364h85.061v101.834h-85.061z" fill="#ffe2c7"></path><path d="m325.307 346.199h-30.77v-40.445c0-8.497 6.888-15.385 15.385-15.385 8.497 0 15.385 6.888 15.385 15.385z" fill="#ab632e"></path><path d="m350.393 142.365h140.001l-70.001-60.367z" fill="#ff416a"></path><path d="m420.393 81.998-20 17.247 50.001 43.12h40z" fill="#eb3c62"></path><path d="m267.899 80.099c0-22.707 18.407-41.114 41.114-41.114s41.114 18.407 41.114 41.114z" fill="#ffd414"></path><path d="m319.86 165.474h-21.694v-30.026c0-5.991 4.856-10.847 10.847-10.847 5.991 0 10.847 4.856 10.847 10.847z" fill="#67cee9"></path><path d="" style="fill:none;stroke:#000;stroke-width:15;stroke-linecap:round;stroke-linejoin:round;stroke-miterlimit:10"></path><path d="m70.223 244.467h-49.504l49.504-50.74 49.505 50.74z" fill="#ff416a"></path><path d="m7.528 335.773h497v168.5h-497z" fill="#b3e897"></path><path d="m464.528 335.773h40v168.5h-40z" fill="#a4de6a"></path><path d="m463.973 408.943c12-1.522 27.323-2.361 40.555-2.361v-32.495c-125.161-2.239-284.407 29.401-374.774 130.186h158.274c43.259-54.889 108.959-83.088 175.945-95.33z" fill="#d2f6ff"></path><g fill="#45bf64"><path d="m57.984 447.614c0 14.284-11.58 25.864-25.864 25.864s-25.864-11.58-25.864-25.864 11.58-68.359 25.864-68.359 25.864 54.075 25.864 68.359z"></path><path d="m145.592 367.178c0 14.284-11.58 25.864-25.864 25.864s-25.864-11.58-25.864-25.864 11.58-68.359 25.864-68.359 25.864 54.075 25.864 68.359z"></path><path d="m463.973 429.623c0 14.284-11.58 25.864-25.864 25.864s-25.864-11.58-25.864-25.864 11.58-68.359 25.864-68.359 25.864 54.075 25.864 68.359z"></path></g><path d="m504.528 374.087c-13.003-.233-26.377-.093-40 .445v34.344c11.916-1.479 26.969-2.294 40-2.294z" fill="#b8f0ff"></path><path d="m177.78 454.081c-35.762 24.463-53.015 44.484-53.731 45.324-6.216 7.286 4.99 17.226 11.405 9.743.164-.192 16.84-19.459 50.795-42.686 8.004-5.475-.464-17.855-8.469-12.381z"></path><path d="m501.82 399.083c-11.681 0-23.339.655-34.72 1.938-1.505-6.396-3.286-12.77-5.434-18.982 13.168-.526 26.585-.695 40.02-.452 9.709.154 9.96-14.824.27-14.998-15.684-.28-31.351-.034-46.631.707-5.071-9.151-10.708-13.53-17.215-13.53-7.12 0-13.197 5.239-18.632 16.24-78.193 8.093-148.986 29.823-210.471 64.635-8.244 4.667-.898 17.748 7.391 13.053 57.652-32.643 123.849-53.445 196.914-61.923-2.993 9.385-5.298 19.058-6.935 28.772-81.906 27.832-122.702 82.963-124.416 85.322-5.557 7.647 6.208 16.934 12.129 8.826.383-.525 37.714-50.738 110.691-77.668.63 15.196 11.471 27.793 25.829 31.105v24.155c0 9.697 15 9.697 15 0v-24.155c22.311-5.147 27.627-26.576 24.437-46.341 10.423-1.128 21.086-1.703 31.774-1.703 9.696-.001 9.696-15.001-.001-15.001zm-56.211 47.286v-23.192c0-4.142-3.357-7.5-7.5-7.5s-7.5 3.358-7.5 7.5v23.192c-6.394-2.875-10.864-9.293-10.864-16.746 0-5.929 2.479-20.909 6.484-34.773 1.786-6.185 3.528-11.008 5.124-14.735.043-.095.085-.189.124-.286 2.941-6.799 5.37-9.861 6.632-10.835 1.962 1.514 6.737 8.053 11.88 25.856 4.005 13.864 6.484 28.845 6.484 34.773 0 7.453-4.471 13.87-10.864 16.746z"></path><path d="m33.392 371.756c-10.249 0-18.34 10.845-25.461 34.129-4.947 16.176-7.903 33.92-7.903 41.729 0 15.818 11.068 29.09 25.864 32.504v24.155c0 9.697 15 9.697 15 0v-24.155c14.796-3.413 25.864-16.686 25.864-32.504 0-7.81-2.956-25.553-7.903-41.729-7.121-23.284-15.212-34.129-25.461-34.129zm7.5 92.604v-23.192c0-9.697-15-9.697-15 0v23.192c-6.394-2.875-10.864-9.293-10.864-16.746 0-5.929 2.479-20.909 6.484-34.773 5.143-17.803 9.918-24.342 11.88-25.856 1.962 1.514 6.737 8.053 11.88 25.856 4.005 13.864 6.484 28.845 6.484 34.773 0 7.453-4.47 13.871-10.864 16.746z"></path><path d="m504.528 328.273h-6.634v-19.5c0-9.697-15-9.697-15 0v19.5h-37.507v-83.909c0-2.36-1.166-4.655-3.068-6.05l-44.083-32.291c-1.285-.942-2.838-1.45-4.432-1.45h-35.911v-54.708h125.001v125.505c0 9.697 15 9.697 15 0v-133.005c0-2.153-.97-4.273-2.602-5.68l-70.001-60.367c-2.814-2.427-6.982-2.427-9.797 0l-57.611 49.683v-45.738c0-23.578-18.209-44.595-41.37-48.198v-24.792c0-9.697-15-9.697-15 0v24.792c-23.158 3.602-41.37 24.622-41.37 48.198v57.104l-61.93-47.387c-2.689-2.058-6.426-2.058-9.115 0l-21.767 16.655c-7.701 5.892 1.413 17.806 9.115 11.913l17.209-13.168 51.966 39.763h-103.931l8.46-6.473c7.701-5.893-1.412-17.804-9.115-11.913l-26.046 19.93c-1.832 1.4-2.942 3.651-2.942 5.957v73.349l-36.444-37.492c-2.941-3.027-7.8-3.03-10.746-.01l-49.506 50.739c-1.352 1.386-2.132 3.301-2.132 5.237v83.806h-5.691c-9.697 0-9.697 15 0 15l82.066.426c-2.074 9.835-3.229 18.598-3.229 23.479 0 15.818 11.068 29.09 25.864 32.504v24.155c0 9.697 15 9.697 15 0v-24.155c14.795-3.414 25.863-16.686 25.863-32.504 0-4.881-1.155-13.644-3.229-23.479l354.665-.426c9.697 0 9.697-15 0-15zm-358.501 0c-.273-.945-.552-1.887-.838-2.824-5.292-17.306-11.121-27.735-17.973-31.952l-.17-49.056v-84.298h133.097v20.696c0 .449.047.886.122 1.313v62.212 83.909zm164.271-123.7c-.004 0-.008 0-.011 0-.363 0-.717.035-1.066.085-.071.01-.142.02-.213.033-.355.062-.703.145-1.039.254-.038.012-.074.028-.112.041-.341.117-.672.257-.989.421-.026.013-.053.024-.079.038-.331.176-.644.379-.943.6-.027.02-.058.034-.085.054l-30.495 23.153v-76.611c0-.28-.018-.556-.048-.828-.008-.071-.022-.139-.032-.209-.013-.092-.026-.185-.042-.276v-63.565h67.74v116.811h-32.586zm-35.033 43.514 35.03-26.597 35.03 26.597v80.186h-12.519v-22.519c0-12.619-10.266-22.885-22.885-22.885s-22.886 10.266-22.886 22.885v22.519h-11.771v-80.186zm42.542 80.186h-15.771v-22.519c0-4.348 3.537-7.885 7.886-7.885 4.348 0 7.885 3.537 7.885 7.885zm42.518 0v-76.409h70.062v76.409zm54.631-91.409h-59.606l-22.774-17.291h58.775zm5.437-144.962 49.82 42.963h-99.638zm-111.38-45.417c15.958 0 29.354 11.177 32.771 26.114h-65.541c3.415-14.937 16.812-26.114 32.77-26.114zm-238.799 157.992 31.583 32.49h-31.573-31.709zm-41.995 47.49h42.005 41.822v41.655c-6.768 4.294-12.536 14.686-17.778 31.827-.286.937-.565 1.879-.838 2.824h-65.21v-76.306zm99.01 131.957v-23.192c0-4.142-3.357-7.5-7.5-7.5s-7.5 3.358-7.5 7.5v23.192c-6.394-2.875-10.864-9.293-10.864-16.746 0-5.929 2.479-20.91 6.483-34.774 5.144-17.803 9.918-24.342 11.881-25.855 1.962 1.514 6.737 8.053 11.88 25.856 4.005 13.864 6.483 28.845 6.483 34.773 0 7.453-4.47 13.87-10.863 16.746z"></path><path d="m193.655 180.611c-4.143 0-7.5 3.358-7.5 7.5v38.672c0 4.142 3.357 7.5 7.5 7.5s7.5-3.358 7.5-7.5v-38.672c0-4.142-3.357-7.5-7.5-7.5z"></path><path d="m230.614 180.611c-4.143 0-7.5 3.358-7.5 7.5v38.672c0 4.142 3.357 7.5 7.5 7.5s7.5-3.358 7.5-7.5v-38.672c0-4.142-3.357-7.5-7.5-7.5z"></path><path d="m193.655 254.572c-4.143 0-7.5 3.358-7.5 7.5v38.672c0 4.142 3.357 7.5 7.5 7.5s7.5-3.358 7.5-7.5v-38.672c0-4.142-3.357-7.5-7.5-7.5z"></path><path d="m230.614 254.572c-4.143 0-7.5 3.358-7.5 7.5v38.672c0 4.142 3.357 7.5 7.5 7.5s7.5-3.358 7.5-7.5v-38.672c0-4.142-3.357-7.5-7.5-7.5z"></path><path d="m156.695 180.611c-4.143 0-7.5 3.358-7.5 7.5v38.672c0 4.142 3.357 7.5 7.5 7.5s7.5-3.358 7.5-7.5v-38.672c0-4.142-3.357-7.5-7.5-7.5z"></path><path d="m156.695 254.572c-4.143 0-7.5 3.358-7.5 7.5v38.672c0 4.142 3.357 7.5 7.5 7.5s7.5-3.358 7.5-7.5v-38.672c0-4.142-3.357-7.5-7.5-7.5z"></path><path d="m309.922 262.895c9.652 0 9.668-15 0-15-9.652 0-9.668 15 0 15z"></path><path d="m380.694 266.131c-4.143 0-7.5 3.358-7.5 7.5v12.577c0 4.142 3.357 7.5 7.5 7.5s7.5-3.358 7.5-7.5v-12.577c0-4.142-3.358-7.5-7.5-7.5z"></path><path d="m409.934 266.131c-4.143 0-7.5 3.358-7.5 7.5v12.577c0 4.142 3.357 7.5 7.5 7.5s7.5-3.358 7.5-7.5v-12.577c0-4.142-3.358-7.5-7.5-7.5z"></path><path d="m309.013 117.101c-10.116 0-18.347 8.23-18.347 18.347v30.026c0 4.142 3.357 7.5 7.5 7.5h21.694c4.143 0 7.5-3.358 7.5-7.5v-30.026c.001-10.117-8.23-18.347-18.347-18.347zm3.348 40.873h-6.694v-22.526c0-1.846 1.501-3.347 3.347-3.347s3.348 1.501 3.348 3.347v22.526z"></path><path d="m95.875 301.549v-21.033c0-4.142-3.357-7.5-7.5-7.5s-7.5 3.358-7.5 7.5v21.033c0 4.142 3.357 7.5 7.5 7.5s7.5-3.358 7.5-7.5z"></path><path d="m52.071 273.016c-4.143 0-7.5 3.358-7.5 7.5v21.033c0 4.142 3.357 7.5 7.5 7.5s7.5-3.358 7.5-7.5v-21.033c0-4.142-3.357-7.5-7.5-7.5z"></path><path d="m374.666 170.619v16.745c0 4.142 3.357 7.5 7.5 7.5s7.5-3.358 7.5-7.5v-16.745c0-4.142-3.357-7.5-7.5-7.5s-7.5 3.358-7.5 7.5z"></path><path d="m450.609 170.619v16.745c0 4.142 3.357 7.5 7.5 7.5s7.5-3.358 7.5-7.5v-16.745c0-4.142-3.357-7.5-7.5-7.5s-7.5 3.358-7.5 7.5z"></path><path d="m412.269 170.619v16.745c0 4.142 3.357 7.5 7.5 7.5s7.5-3.358 7.5-7.5v-16.745c0-4.142-3.357-7.5-7.5-7.5s-7.5 3.358-7.5 7.5z"></path></svg>